# xmcd
#
# Track frame offsets:
#	150
#	14695
#	33095
#	44882
#	58812
#	77415
#	89970
#	106037
#	119395
#	137402
#
# Disc length: 1994 seconds
#
# Revision: 0
# Processed by: cddbd v1.5.2PL0 Copyright (c) Steve Scherf et al.
# Submitted via: audiograbber 1.80
#
DISCID=8407c80a
DTITLE=Highwaymen - Highwayman 2
DYEAR=1990
DGENRE=Country
TTITLE0=Silver Stallion
TTITLE1=Born and Raised in Black and White
TTITLE2=Two Stories Wide
TTITLE3=We're All in Your Corner
TTITLE4=American Remains
TTITLE5=Anthem '84
TTITLE6=Angels Love Bad Men
TTITLE7=Songs That Make a Difference
TTITLE8=Living Legend
TTITLE9=Texas
EXTD=
EXTT0=
EXTT1=
EXTT2=
EXTT3=
EXTT4=
EXTT5=
EXTT6=
EXTT7=
EXTT8=
EXTT9=
PLAYORDER=
